<svg width="500" height="500" viewBox="0 0 500 500" fill="none" xmlns="http://www.w3.org/2000/svg">
    <path d="M126.08 364.4C107.267 364.4 90.9467 361.453 77.12 355.56C63.52 349.667 53.0933 341.96 45.84 332.44C38.5867 322.693 34.7333 312.267 34.28 301.16C34.28 299.347 34.96 297.76 36.32 296.4C37.9067 294.813 39.72 294.02 41.76 294.02H59.1C63.4067 294.02 66.3533 296.287 67.94 300.82C69.98 310.34 75.76 318.5 85.28 325.3C95.0267 332.1 108.627 335.5 126.08 335.5C144.893 335.5 159.06 332.213 168.58 325.64C178.1 318.84 182.86 309.433 182.86 297.42C182.86 289.713 180.48 283.48 175.72 278.72C171.187 273.96 164.387 269.767 155.32 266.14C146.253 262.513 132.653 257.98 114.52 252.54C96.84 247.553 82.7867 242.227 72.36 236.56C61.9333 230.893 54.1133 223.867 48.9 215.48C43.6867 207.093 41.08 196.553 41.08 183.86C41.08 171.62 44.3667 160.627 50.94 150.88C57.74 141.133 67.3733 133.54 79.84 128.1C92.3067 122.433 107.153 119.6 124.38 119.6C142.06 119.6 157.247 122.773 169.94 129.12C182.633 135.24 192.267 143.06 198.84 152.58C205.413 162.1 208.927 171.62 209.38 181.14C209.38 182.953 208.7 184.54 207.34 185.9C206.207 187.26 204.507 187.94 202.24 187.94H184.22C179.46 187.94 176.513 185.787 175.38 181.48C174.02 171.96 168.693 164.14 159.4 158.02C150.107 151.673 138.433 148.5 124.38 148.5C108.967 148.5 96.84 151.447 88 157.34C79.16 163.233 74.74 171.96 74.74 183.52C74.74 191.227 76.78 197.573 80.86 202.56C85.1667 207.547 91.6267 211.967 100.24 215.82C108.853 219.447 121.433 223.64 137.98 228.4C157.247 233.613 172.433 239.053 183.54 244.72C194.647 250.16 202.92 257.073 208.36 265.46C213.8 273.62 216.52 284.047 216.52 296.74C216.52 317.82 208.36 334.367 192.04 346.38C175.72 358.393 153.733 364.4 126.08 364.4ZM268.904 361C266.637 361 264.711 360.32 263.124 358.96C261.764 357.373 261.084 355.447 261.084 353.18V131.16C261.084 128.667 261.764 126.74 263.124 125.38C264.711 123.793 266.637 123 268.904 123H346.084C380.311 123 405.017 130.707 420.204 146.12C435.391 161.307 443.324 184.313 444.004 215.14C444.231 221.713 444.344 230.553 444.344 241.66C444.344 252.767 444.231 261.72 444.004 268.52C443.324 290.053 439.697 307.62 433.124 321.22C426.777 334.593 416.691 344.567 402.864 351.14C389.037 357.713 370.677 361 347.784 361H268.904ZM346.084 332.1C361.724 332.1 374.077 329.947 383.144 325.64C392.437 321.333 399.124 314.533 403.204 305.24C407.511 295.72 409.891 283.027 410.344 267.16C410.797 253.56 411.024 245.06 411.024 241.66C411.024 238.033 410.797 229.647 410.344 216.5C409.891 194.06 404.564 177.74 394.364 167.54C384.164 157.113 367.504 151.9 344.384 151.9H294.404V332.1H346.084Z" fill="black"/>
</svg>
