<svg width="0" height="0" class="hidden">
    <symbol xmlns="http://www.w3.org/2000/svg" viewBox="0 0 24 24" fill="none" stroke="currentColor" id="code">
        <path stroke-linecap="round" stroke-linejoin="round" stroke-width="2" d="M10 20l4-16m4 4l4 4-4 4M6 16l-4-4 4-4" />
    </symbol>

    <symbol xmlns="http://www.w3.org/2000/svg" viewBox="0 0 24 24" fill="none" stroke="currentColor" id="server">
        <path stroke-linecap="round" stroke-linejoin="round" stroke-width="2" d="M5 12h14M5 12a2 2 0 01-2-2V6a2 2 0 012-2h14a2 2 0 012 2v4a2 2 0 01-2 2M5 12a2 2 0 00-2 2v4a2 2 0 002 2h14a2 2 0 002-2v-4a2 2 0 00-2-2m-2-4h.01M17 16h.01" />
    </symbol>

    <symbol xmlns="http://www.w3.org/2000/svg" viewBox="0 0 24 24" fill="none" stroke="currentColor" id="earth">
        <path stroke-linecap="round" stroke-linejoin="round" stroke-width="2" d="M3.055 11H5a2 2 0 012 2v1a2 2 0 002 2 2 2 0 012 2v2.945M8 3.935V5.5A2.5 2.5 0 0010.5 8h.5a2 2 0 012 2 2 2 0 104 0 2 2 0 012-2h1.064M15 20.488V18a2 2 0 012-2h3.064M21 12a9 9 0 11-18 0 9 9 0 0118 0z" />
    </symbol>

    <symbol xmlns="http://www.w3.org/2000/svg" viewBox="0 0 24 24" fill="currentColor" id="github">
        <path fill-rule="evenodd" d="M12 2C6.477 2 2 6.484 2 12.017c0 4.425 2.865 8.18 6.839 9.504.5.092.682-.217.682-.483 0-.237-.008-.868-.013-1.703-2.782.605-3.369-1.343-3.369-1.343-.454-1.158-1.11-1.466-1.11-1.466-.908-.62.069-.608.069-.608 1.003.07 1.531 1.032 1.531 1.032.892 1.53 2.341 1.088 2.91.832.092-.647.35-1.088.636-1.338-2.22-.253-4.555-1.113-4.555-4.951 0-1.093.39-1.988 1.029-2.688-.103-.253-.446-1.272.098-2.65 0 0 .84-.27 2.75 1.026A9.564 9.564 0 0112 6.844c.85.004 1.705.115 2.504.337 1.909-1.296 2.747-1.027 2.747-1.027.546 1.379.202 2.398.1 2.651.64.7 1.028 1.595 1.028 2.688 0 3.848-2.339 4.695-4.566 4.943.359.309.678.92.678 1.855 0 1.338-.012 2.419-.012 2.747 0 .268.18.58.688.482A10.019 10.019 0 0022 12.017C22 6.484 17.522 2 12 2z" clip-rule="evenodd" />
    </symbol>

    <!-- Techno -->
    <symbol xmlns="http://www.w3.org/2000/svg" viewBox="0 0 256 215" id="docker">
        <g fill="none" fill-rule="evenodd">
            <path d="M38.617 173.984v-16.362c0-2.15 1.344-3.877 3.57-3.877h.616c2.225 0 3.563 1.729 3.563 3.877v34.447c0 8.4-4.15 15.084-11.382 19.342a21.374 21.374 0 0 1-10.945 2.985h-1.537c-8.402 0-15.077-4.153-19.342-11.38a21.314 21.314 0 0 1-2.984-10.947v-1.535c0-8.403 4.152-15.083 11.378-19.349a21.298 21.298 0 0 1 10.948-2.985h1.537c5.686 0 10.51 2.204 14.578 5.784zM7.924 191.3c0 6.068 2.941 10.63 8.258 13.54 2.15 1.176 4.484 1.808 6.937 1.808 5.956 0 10.374-2.81 13.421-7.857 1.417-2.348 2.077-4.917 2.077-7.648 0-5.26-2.49-9.365-6.729-12.414-2.57-1.848-5.463-2.775-8.618-2.775-6.492 0-11.164 3.28-13.968 9.106-.946 1.97-1.378 4.061-1.378 6.24zm65.324-23.1h1.074c8.978 0 15.806 4.355 20.133 12.192 1.73 3.135 2.656 6.557 2.656 10.142v1.535c0 8.4-4.142 15.093-11.385 19.343-3.353 1.967-7.057 2.984-10.943 2.984h-1.535c-8.402 0-15.079-4.153-19.342-11.38a21.316 21.316 0 0 1-2.987-10.947v-1.535c0-8.404 4.169-15.062 11.377-19.347 3.351-1.991 7.058-2.987 10.952-2.987zm-14.58 23.1c0 5.89 2.89 10.223 7.865 13.27 2.336 1.43 4.909 2.078 7.638 2.078 5.82 0 10.122-2.951 13.116-7.863 1.428-2.342 2.074-4.915 2.074-7.642 0-5.477-2.638-9.661-7.148-12.693-2.471-1.663-5.222-2.496-8.198-2.496-6.492 0-11.164 3.28-13.967 9.106-.948 1.97-1.38 4.061-1.38 6.24zm70.656-14.727c-1.17-.548-3.36-.73-4.624-.778-6.474-.244-11.158 3.402-13.906 9.113-.949 1.97-1.382 4.055-1.382 6.235 0 6.637 3.485 11.284 9.409 14.117 2.164 1.034 4.958 1.23 7.323 1.23 2.08 0 5.02-1.274 6.866-2.151l.32-.152h1.433l.158.032c1.762.367 3.092 1.484 3.092 3.38v.767c0 4.718-8.622 5.798-11.912 6.028-11.61.803-20.293-5.573-23.603-16.647-.575-1.923-.834-3.833-.834-5.837v-1.533c0-8.403 4.17-15.059 11.377-19.34 3.351-1.99 7.057-2.99 10.95-2.99h1.536c4.13 0 7.934 1.173 11.344 3.502l.28.194.177.292c.368.61.685 1.316.685 2.042v.767c0 1.978-1.48 3.042-3.266 3.386l-.148.026h-.458c-1.156 0-3.785-1.197-4.817-1.683zm25.134 5.247c3.01-3.014 6.03-6.022 9.085-8.986.851-.827 4.074-4.327 5.343-4.327h1.388l.158.033c1.768.367 3.092 1.486 3.092 3.386v.766c0 1.296-1.518 2.802-2.355 3.689-1.78 1.887-3.654 3.712-5.476 5.56l-9.362 9.504c4.031 4.04 8.058 8.083 12.056 12.154a313.304 313.304 0 0 1 3.301 3.396c.385.405.953.909 1.276 1.47.347.526.56 1.119.56 1.752v.8l-.045.185c-.435 1.768-1.557 3.194-3.516 3.194h-.617c-1.282 0-2.73-1.45-3.608-2.279-1.81-1.706-3.557-3.5-5.331-5.243l-5.949-5.84v9.334c0 2.15-1.346 3.878-3.569 3.878h-.61c-2.226 0-3.57-1.728-3.57-3.878v-52.596c0-2.15 1.345-3.87 3.57-3.87h.61c2.223 0 3.569 1.72 3.569 3.87v24.048zm96.577-13.313h.77c2.324 0 3.875 1.566 3.875 3.877 0 3.208-3.067 4.029-5.72 4.029-3.48 0-6.803 2.107-9.202 4.47-2.991 2.949-4.3 6.726-4.3 10.878v18.759c0 2.15-1.343 3.876-3.57 3.876h-.612c-2.227 0-3.569-1.725-3.569-3.876v-19.836c0-7.617 3.708-13.835 9.89-18.196 3.691-2.605 7.919-3.98 12.438-3.98zm-55.074 37.176c2.82.985 6.035.844 8.928.34 1.48-.629 5.264-2.28 6.656-2.038l.217.037.2.098c.85.412 1.661.995 2.095 1.86 1.014 2.027.527 4.065-1.465 5.216l-.663.383c-7.35 4.242-15.168 3.654-22.495-.308-3.503-1.894-6.183-4.705-8.16-8.132l-.462-.801c-4.719-8.172-4.082-16.768 1.24-24.539 1.837-2.686 4.238-4.761 7.045-6.384l1.062-.613c6.922-3.996 14.341-3.722 21.45-.215 3.823 1.886 6.92 4.697 9.054 8.394l.384.666c1.55 2.686-.458 5.026-2.531 6.626-2.406 1.856-4.835 4.09-7.141 6.08-5.142 4.439-10.276 8.888-15.414 13.33zm-6.655-4.674c5.75-4.93 11.502-9.865 17.237-14.816 1.96-1.69 4.109-3.444 6.053-5.221-1.56-1.966-4.166-3.383-6.38-4.228-4.47-1.703-8.877-1.131-12.976 1.235-5.365 3.098-7.65 8.031-7.45 14.17.08 2.418.73 4.748 2.013 6.805.452.725.957 1.406 1.503 2.055zM147.488 45.732h22.866v23.375h11.561c5.34 0 10.831-.951 15.887-2.664 2.485-.843 5.273-2.015 7.724-3.49-3.228-4.214-4.876-9.535-5.36-14.78-.66-7.135.78-16.421 5.608-22.005l2.404-2.78 2.864 2.303c7.211 5.793 13.276 13.889 14.345 23.118 8.683-2.554 18.878-1.95 26.531 2.467l3.14 1.812-1.652 3.226C246.933 68.946 233.4 72.86 220.17 72.167c-19.797 49.309-62.898 72.653-115.157 72.653-27 0-51.77-10.093-65.876-34.047l-.231-.39-2.055-4.182c-4.768-10.544-6.352-22.095-5.278-33.637l.323-3.457H51.45V45.732h22.865V22.866h45.733V0h27.44v45.732" fill="#364548"/>
            <path d="M221.57 54.38c1.533-11.916-7.384-21.275-12.914-25.719-6.373 7.368-7.363 26.678 2.635 34.808-5.58 4.956-17.337 9.448-29.376 9.448H35.37c-1.17 12.567 1.036 24.14 6.075 34.045l1.667 3.05a56.536 56.536 0 0 0 3.455 5.184c6.025.387 11.58.52 16.662.408h.002c9.987-.22 18.136-1.4 24.312-3.54a1.761 1.761 0 0 1 1.153 3.326c-.822.286-1.678.552-2.562.805h-.003c-4.863 1.389-10.078 2.323-16.806 2.738.4.007-.416.06-.418.06-.229.015-.517.048-.747.06-2.648.149-5.506.18-8.428.18-3.196 0-6.343-.06-9.862-.24l-.09.06c12.21 13.724 31.302 21.955 55.234 21.955 50.648 0 93.608-22.452 112.632-72.857 13.496 1.385 26.467-2.057 32.367-13.575-9.398-5.423-21.484-3.694-28.443-.196" fill="#22A0C8"/>
            <path d="M221.57 54.38c1.533-11.916-7.384-21.275-12.914-25.719-6.373 7.368-7.363 26.678 2.635 34.808-5.58 4.956-17.337 9.448-29.376 9.448H44.048c-.598 19.246 6.544 33.855 19.18 42.687h.003c9.987-.22 18.136-1.4 24.312-3.54a1.761 1.761 0 0 1 1.153 3.326c-.822.286-1.678.552-2.562.805h-.003c-4.863 1.389-10.526 2.443-17.254 2.858-.002 0-.163-.155-.165-.155 17.237 8.842 42.23 8.81 70.885-2.197 32.13-12.344 62.029-35.86 82.89-62.757-.314.142-.62.287-.917.436" fill="#37B1D9"/>
            <path d="M35.645 88.186c.91 6.732 2.88 13.035 5.8 18.776l1.667 3.05a56.432 56.432 0 0 0 3.455 5.184c6.026.387 11.581.52 16.664.408 9.987-.22 18.136-1.4 24.312-3.54a1.761 1.761 0 0 1 1.153 3.326c-.822.286-1.678.552-2.562.805h-.003c-4.863 1.389-10.496 2.383-17.224 2.799-.231.014-.634.017-.867.03-2.646.148-5.475.239-8.398.239-3.195 0-6.463-.061-9.98-.24 12.21 13.724 31.42 21.985 55.352 21.985 43.36 0 81.084-16.458 102.979-52.822H35.645" fill="#1B81A5"/>
            <path d="M45.367 88.186c2.592 11.82 8.821 21.099 17.864 27.418 9.987-.22 18.136-1.4 24.312-3.54a1.761 1.761 0 0 1 1.153 3.326c-.822.286-1.678.552-2.562.805h-.003c-4.863 1.389-10.615 2.383-17.344 2.799 17.236 8.84 42.157 8.713 70.81-2.293 17.334-6.66 34.017-16.574 48.984-28.515H45.367" fill="#1D91B4"/>
            <path d="M55.26 49.543h19.818v19.818H55.26V49.543zm1.651 1.652h1.564V67.71h-1.564V51.195zm2.94 0h1.627V67.71h-1.626V51.195zm3.002 0h1.627V67.71h-1.627V51.195zm3.004 0h1.626V67.71h-1.626V51.195zm3.003 0h1.626V67.71H68.86V51.195zm3.002 0h1.565V67.71h-1.565V51.195zM78.126 26.677h19.819v19.817h-19.82V26.677zm1.652 1.652h1.563v16.514h-1.563V28.329zm2.94 0h1.626v16.514h-1.625V28.329zm3.002 0h1.626v16.514H85.72V28.329zm3.003 0h1.626v16.514h-1.626V28.329zm3.003 0h1.627v16.514h-1.627V28.329zm3.002 0h1.566v16.514h-1.566V28.329z" fill="#23A3C2"/>
            <path d="M78.126 49.543h19.819v19.818h-19.82V49.543zm1.652 1.652h1.563V67.71h-1.563V51.195zm2.94 0h1.626V67.71h-1.625V51.195zm3.002 0h1.626V67.71H85.72V51.195zm3.003 0h1.626V67.71h-1.626V51.195zm3.003 0h1.627V67.71h-1.627V51.195zm3.002 0h1.566V67.71h-1.566V51.195z" fill="#34BBDE"/>
            <path d="M100.993 49.543h19.818v19.818h-19.818V49.543zm1.651 1.652h1.563V67.71h-1.563V51.195zm2.94 0h1.626V67.71h-1.626V51.195zm3.003 0h1.626V67.71h-1.626V51.195zm3.003 0h1.626V67.71h-1.626V51.195zm3.002 0h1.628V67.71h-1.628V51.195zm3.003 0h1.564V67.71h-1.564V51.195z" fill="#23A3C2"/>
            <path d="M100.993 26.677h19.818v19.817h-19.818V26.677zm1.651 1.652h1.563v16.514h-1.563V28.329zm2.94 0h1.626v16.514h-1.626V28.329zm3.003 0h1.626v16.514h-1.626V28.329zm3.003 0h1.626v16.514h-1.626V28.329zm3.002 0h1.628v16.514h-1.628V28.329zm3.003 0h1.564v16.514h-1.564V28.329zM123.859 49.543h19.818v19.818h-19.818V49.543zm1.652 1.652h1.563V67.71h-1.563V51.195zm2.94 0h1.626V67.71h-1.626V51.195zm3.002 0h1.626V67.71h-1.626V51.195zm3.003 0h1.627V67.71h-1.627V51.195zm3.003 0h1.627V67.71h-1.627V51.195zm3.003 0h1.564V67.71h-1.564V51.195z" fill="#34BBDE"/>
            <path d="M123.859 26.677h19.818v19.817h-19.818V26.677zm1.652 1.652h1.563v16.514h-1.563V28.329zm2.94 0h1.626v16.514h-1.626V28.329zm3.002 0h1.626v16.514h-1.626V28.329zm3.003 0h1.627v16.514h-1.627V28.329zm3.003 0h1.627v16.514h-1.627V28.329zm3.003 0h1.564v16.514h-1.564V28.329z" fill="#23A3C2"/>
            <path d="M123.859 3.81h19.818V23.63h-19.818V3.81zm1.652 1.651h1.563v16.516h-1.563V5.46zm2.94 0h1.626v16.516h-1.626V5.46zm3.002 0h1.626v16.516h-1.626V5.46zm3.003 0h1.627v16.516h-1.627V5.46zm3.003 0h1.627v16.516h-1.627V5.46zm3.003 0h1.564v16.516h-1.564V5.46z" fill="#34BBDE"/>
            <path d="M146.725 49.543h19.818v19.818h-19.818V49.543zm1.65 1.652h1.565V67.71h-1.564V51.195zm2.94 0h1.627V67.71h-1.626V51.195zm3.004 0h1.627V67.71h-1.627V51.195zm3.002 0h1.627V67.71h-1.627V51.195zm3.004 0h1.626V67.71h-1.626V51.195zm3.002 0h1.564V67.71h-1.564V51.195z" fill="#23A3C2"/>
            <path d="M96.704 101.492a5.468 5.468 0 1 1-.002 10.935 5.468 5.468 0 0 1 .002-10.935" fill="#D3ECEC"/>
            <path d="M96.704 103.043c.5 0 .977.094 1.417.265a1.598 1.598 0 0 0 .798 2.98c.605 0 1.13-.335 1.402-.831a3.915 3.915 0 1 1-3.617-2.414M0 90.162h254.327c-5.537-1.404-17.52-3.302-15.544-10.56-10.07 11.652-34.353 8.175-40.482 2.43-6.824 9.898-46.554 6.135-49.325-1.576-8.556 10.041-35.067 10.041-43.623 0-2.773 7.711-42.502 11.474-49.327 1.575-6.128 5.746-30.41 9.223-40.48-2.428C17.522 86.86 5.539 88.758 0 90.163" fill="#364548"/>
            <path d="M111.237 140.89c-13.54-6.425-20.971-15.16-25.106-24.694-5.03 1.435-11.075 2.353-18.1 2.747-2.646.148-5.43.224-8.35.224-3.368 0-6.917-.1-10.643-.297 12.417 12.41 27.692 21.964 55.976 22.138 2.088 0 4.16-.04 6.223-.118" fill="#BDD9D7"/>
            <path d="M91.16 124.994c-1.873-2.543-3.69-5.739-5.026-8.8-5.03 1.437-11.077 2.355-18.103 2.75 4.826 2.619 11.727 5.046 23.13 6.05" fill="#D3ECEC"/>
        </g>
    </symbol>

    <symbol xmlns="http://www.w3.org/2000/svg" viewBox="0 0 32 32" id="kubernetes">
        <path d="M15.9.476a2.14 2.14 0 0 0-.823.218L3.932 6.01c-.582.277-1.005.804-1.15 1.432L.054 19.373c-.13.56-.025 1.147.3 1.627q.057.087.12.168l7.7 9.574c.407.5 1.018.787 1.662.784h12.35c.646.001 1.258-.3 1.664-.793l7.696-9.576c.404-.5.555-1.16.4-1.786L29.2 7.43c-.145-.628-.57-1.155-1.15-1.432L16.923.695A2.14 2.14 0 0 0 15.89.476z" fill="#326ce5"/>
        <path d="M16.002 4.542c-.384.027-.675.356-.655.74v.188c.018.213.05.424.092.633a6.22 6.22 0 0 1 .066 1.21c-.038.133-.114.253-.218.345l-.015.282c-.405.034-.807.096-1.203.186-1.666.376-3.183 1.24-4.354 2.485l-.24-.17c-.132.04-.274.025-.395-.04a6.22 6.22 0 0 1-.897-.81 5.55 5.55 0 0 0-.437-.465l-.148-.118c-.132-.106-.294-.167-.463-.175a.64.64 0 0 0-.531.236c-.226.317-.152.756.164.983l.138.11a5.55 5.55 0 0 0 .552.323c.354.197.688.428.998.7a.74.74 0 0 1 .133.384l.218.2c-1.177 1.766-1.66 3.905-1.358 6.006l-.28.08c-.073.116-.17.215-.286.288a6.22 6.22 0 0 1-1.194.197 5.57 5.57 0 0 0-.64.05l-.177.04h-.02a.67.67 0 0 0-.387 1.132.67.67 0 0 0 .684.165h.013l.18-.02c.203-.06.403-.134.598-.218.375-.15.764-.265 1.162-.34.138.008.27.055.382.135l.3-.05c.65 2.017 2.016 3.726 3.84 4.803l-.122.255c.056.117.077.247.06.376-.165.382-.367.748-.603 1.092a5.58 5.58 0 0 0-.358.533l-.085.18a.67.67 0 0 0 .65 1.001.67.67 0 0 0 .553-.432l.083-.17c.076-.2.14-.404.192-.61.177-.437.273-.906.515-1.196a.54.54 0 0 1 .286-.14l.15-.273a8.62 8.62 0 0 0 6.146.015l.133.255c.136.02.258.095.34.205.188.358.34.733.456 1.12a5.57 5.57 0 0 0 .194.611l.083.17a.67.67 0 0 0 1.187.131.67.67 0 0 0 .016-.701l-.087-.18a5.55 5.55 0 0 0-.358-.531c-.23-.332-.428-.686-.6-1.057a.52.52 0 0 1 .068-.4 2.29 2.29 0 0 1-.111-.269c1.82-1.085 3.18-2.8 3.823-4.82l.284.05c.102-.093.236-.142.373-.138.397.076.786.2 1.162.34.195.09.395.166.598.23.048.013.118.024.172.037h.013a.67.67 0 0 0 .841-.851.67.67 0 0 0-.544-.446l-.194-.046a5.57 5.57 0 0 0-.64-.05c-.404-.026-.804-.092-1.194-.197-.12-.067-.22-.167-.288-.288l-.27-.08a8.65 8.65 0 0 0-1.386-5.993l.236-.218c-.01-.137.035-.273.124-.378.307-.264.64-.497.99-.696a5.57 5.57 0 0 0 .552-.323l.146-.118a.67.67 0 0 0-.133-1.202.67.67 0 0 0-.696.161l-.148.118a5.57 5.57 0 0 0-.437.465c-.264.302-.556.577-.873.823a.74.74 0 0 1-.404.044l-.253.18c-1.46-1.53-3.427-2.48-5.535-2.67 0-.1-.013-.25-.015-.297-.113-.078-.192-.197-.218-.332a6.23 6.23 0 0 1 .076-1.207c.043-.21.073-.42.092-.633v-.2c.02-.384-.27-.713-.655-.74zm-.834 5.166l-.2 3.493h-.015c-.01.216-.137.4-.332.504s-.426.073-.6-.054l-2.865-2.03a6.86 6.86 0 0 1 3.303-1.799c.234-.05.47-.088.707-.114zm1.668 0c1.505.187 2.906.863 3.99 1.924l-2.838 2.017c-.175.14-.415.168-.618.072s-.333-.3-.336-.524zm-6.72 3.227l2.62 2.338v.015c.163.142.234.363.186.574s-.21.378-.417.435v.01l-3.362.967a6.86 6.86 0 0 1 .974-4.34zm11.753 0c.796 1.295 1.148 2.814 1.002 4.327l-3.367-.97v-.013c-.21-.057-.37-.224-.417-.435s.023-.43.186-.574l2.6-2.327zm-6.404 2.52h1.072l.655.832-.238 1.04-.963.463-.965-.463-.227-1.04zm3.434 2.838c.045-.005.1-.005.135 0l3.467.585c-.5 1.44-1.487 2.67-2.775 3.493l-1.34-3.244a.59.59 0 0 1 .509-.819zm-5.823.015c.196.003.377.104.484.268s.124.37.047.55v.013l-1.332 3.218C11 21.54 10.032 20.325 9.517 18.9l3.437-.583c.038-.004.077-.004.116 0zm2.904 1.4a.59.59 0 0 1 .537.308h.013l1.694 3.057-.677.2c-1.246.285-2.547.218-3.758-.194l1.7-3.057c.103-.18.293-.29.5-.295z" fill="#fff" stroke="#fff" stroke-width=".055"/>
    </symbol>

    <symbol xmlns="http://www.w3.org/2000/svg" viewBox="0 0 841.9 595.3" id="react">
        <g fill="#61DAFB">
            <path d="M666.3 296.5c0-32.5-40.7-63.3-103.1-82.4 14.4-63.6 8-114.2-20.2-130.4-6.5-3.8-14.1-5.6-22.4-5.6v22.3c4.6 0 8.3.9 11.4 2.6 13.6 7.8 19.5 37.5 14.9 75.7-1.1 9.4-2.9 19.3-5.1 29.4-19.6-4.8-41-8.5-63.5-10.9-13.5-18.5-27.5-35.3-41.6-50 32.6-30.3 63.2-46.9 84-46.9V78c-27.5 0-63.5 19.6-99.9 53.6-36.4-33.8-72.4-53.2-99.9-53.2v22.3c20.7 0 51.4 16.5 84 46.6-14 14.7-28 31.4-41.3 49.9-22.6 2.4-44 6.1-63.6 11-2.3-10-4-19.7-5.2-29-4.7-38.2 1.1-67.9 14.6-75.8 3-1.8 6.9-2.6 11.5-2.6V78.5c-8.4 0-16 1.8-22.6 5.6-28.1 16.2-34.4 66.7-19.9 130.1-62.2 19.2-102.7 49.9-102.7 82.3 0 32.5 40.7 63.3 103.1 82.4-14.4 63.6-8 114.2 20.2 130.4 6.5 3.8 14.1 5.6 22.5 5.6 27.5 0 63.5-19.6 99.9-53.6 36.4 33.8 72.4 53.2 99.9 53.2 8.4 0 16-1.8 22.6-5.6 28.1-16.2 34.4-66.7 19.9-130.1 62-19.1 102.5-49.9 102.5-82.3zm-130.2-66.7c-3.7 12.9-8.3 26.2-13.5 39.5-4.1-8-8.4-16-13.1-24-4.6-8-9.5-15.8-14.4-23.4 14.2 2.1 27.9 4.7 41 7.9zm-45.8 106.5c-7.8 13.5-15.8 26.3-24.1 38.2-14.9 1.3-30 2-45.2 2-15.1 0-30.2-.7-45-1.9-8.3-11.9-16.4-24.6-24.2-38-7.6-13.1-14.5-26.4-20.8-39.8 6.2-13.4 13.2-26.8 20.7-39.9 7.8-13.5 15.8-26.3 24.1-38.2 14.9-1.3 30-2 45.2-2 15.1 0 30.2.7 45 1.9 8.3 11.9 16.4 24.6 24.2 38 7.6 13.1 14.5 26.4 20.8 39.8-6.3 13.4-13.2 26.8-20.7 39.9zm32.3-13c5.4 13.4 10 26.8 13.8 39.8-13.1 3.2-26.9 5.9-41.2 8 4.9-7.7 9.8-15.6 14.4-23.7 4.6-8 8.9-16.1 13-24.1zM421.2 430c-9.3-9.6-18.6-20.3-27.8-32 9 .4 18.2.7 27.5.7 9.4 0 18.7-.2 27.8-.7-9 11.7-18.3 22.4-27.5 32zm-74.4-58.9c-14.2-2.1-27.9-4.7-41-7.9 3.7-12.9 8.3-26.2 13.5-39.5 4.1 8 8.4 16 13.1 24 4.7 8 9.5 15.8 14.4 23.4zM420.7 163c9.3 9.6 18.6 20.3 27.8 32-9-.4-18.2-.7-27.5-.7-9.4 0-18.7.2-27.8.7 9-11.7 18.3-22.4 27.5-32zm-74 58.9c-4.9 7.7-9.8 15.6-14.4 23.7-4.6 8-8.9 16-13 24-5.4-13.4-10-26.8-13.8-39.8 13.1-3.1 26.9-5.8 41.2-7.9zm-90.5 125.2c-35.4-15.1-58.3-34.9-58.3-50.6 0-15.7 22.9-35.6 58.3-50.6 8.6-3.7 18-7 27.7-10.1 5.7 19.6 13.2 40 22.5 60.9-9.2 20.8-16.6 41.1-22.2 60.6-9.9-3.1-19.3-6.5-28-10.2zM310 490c-13.6-7.8-19.5-37.5-14.9-75.7 1.1-9.4 2.9-19.3 5.1-29.4 19.6 4.8 41 8.5 63.5 10.9 13.5 18.5 27.5 35.3 41.6 50-32.6 30.3-63.2 46.9-84 46.9-4.5-.1-8.3-1-11.3-2.7zm237.2-76.2c4.7 38.2-1.1 67.9-14.6 75.8-3 1.8-6.9 2.6-11.5 2.6-20.7 0-51.4-16.5-84-46.6 14-14.7 28-31.4 41.3-49.9 22.6-2.4 44-6.1 63.6-11 2.3 10.1 4.1 19.8 5.2 29.1zm38.5-66.7c-8.6 3.7-18 7-27.7 10.1-5.7-19.6-13.2-40-22.5-60.9 9.2-20.8 16.6-41.1 22.2-60.6 9.9 3.1 19.3 6.5 28.1 10.2 35.4 15.1 58.3 34.9 58.3 50.6-.1 15.7-23 35.6-58.4 50.6zM320.8 78.4z"/>
            <circle cx="420.9" cy="296.5" r="45.7"/>
            <path d="M520.5 78.1z"/>
        </g>
    </symbol>

    <symbol xmlns="http://www.w3.org/2000/svg" viewBox="0 0 630 630" id="javascript">
        <rect width="630" height="630" fill="#f7df1e"/>
        <path d="m423.2 492.19c12.69 20.72 29.2 35.95 58.4 35.95 24.53 0 40.2-12.26 40.2-29.2 0-20.3-16.1-27.49-43.1-39.3l-14.8-6.35c-42.72-18.2-71.1-41-71.1-89.2 0-44.4 33.83-78.2 86.7-78.2 37.64 0 64.7 13.1 84.2 47.4l-46.1 29.6c-10.15-18.2-21.1-25.37-38.1-25.37-17.34 0-28.33 11-28.33 25.37 0 17.76 11 24.95 36.4 35.95l14.8 6.34c50.3 21.57 78.7 43.56 78.7 93 0 53.3-41.87 82.5-98.1 82.5-54.98 0-90.5-26.2-107.88-60.54zm-209.13 5.13c9.3 16.5 17.76 30.45 38.1 30.45 19.45 0 31.72-7.61 31.72-37.2v-201.3h59.2v202.1c0 61.3-35.94 89.2-88.4 89.2-47.4 0-74.85-24.53-88.81-54.075z"/>
    </symbol>

    <svg xmlns="http://www.w3.org/2000/svg" viewBox="0 0 500 500" id="helm">
        <path fill="#0f1689" d="M136.52938,121.13478c-.572-.54252-1.19462-1.12636-1.81-1.71761-12.61677-12.12115-22.38092-26.13637-28.279-42.702-1.65073-4.63637-2.89692-9.36515-2.67587-14.35871.021-.4739.01959-.94915.05226-1.42214.445-6.44594,4.75912-9.70322,11.05839-8.17669a27.325,27.325,0,0,1,5.73149,2.19653c6.89022,3.45538,12.5062,8.56359,17.67051,14.16571a112.52651,112.52651,0,0,1,21.722,33.42965,8.29635,8.29635,0,0,0,.38946.861c.07116.12855.22232.21282.55927.51883A176.357,176.357,0,0,1,241.968,79.06864c-.17651-.8761-.28195-1.54571-.44772-2.2a112.49436,112.49436,0,0,1-2.65292-36.95637,84.07478,84.07478,0,0,1,4.44444-21.76378,31.32555,31.32555,0,0,1,5.47651-10.17139,15.687,15.687,0,0,1,3.16336-2.82149,7.026,7.026,0,0,1,8.03255-.056,17.27854,17.27854,0,0,1,5.8402,6.73185A53.05435,53.05435,0,0,1,271.08657,26.508a112.50469,112.50469,0,0,1,2.12263,33.00356,95.59806,95.59806,0,0,1-3.49052,19.91081c7.12171,1.31193,14.20955,2.32869,21.1473,3.97713a186.37909,186.37909,0,0,1,20.44069,6.0033A188.31671,188.31671,0,0,1,331.0769,97.9721c6.34538,3.16433,12.38553,6.94066,18.71757,10.53829.20571-.433.50439-.94982.706-1.50212A108.65959,108.65959,0,0,1,383.40128,60.246a37.75787,37.75787,0,0,1,11.822-6.883,17.24558,17.24558,0,0,1,3.67827-.84512c6.264-.71729,8.89351,3.2244,9.35653,7.93183a29.94372,29.94372,0,0,1-.77381,10.35466A87.90551,87.90551,0,0,1,396.75426,95.492c-6.79016,10.97178-14.85015,20.85494-25.09307,28.83042-.30234.2354-.56784.51814-1.07988.99029a177.77993,177.77993,0,0,1,26.59293,30.88244,10.96227,10.96227,0,0,1-1.689.29762c-10.59546.015-21.1911-.01829-31.78622.04607a4.004,4.004,0,0,1-3.17246-1.69,147.87522,147.87522,0,0,0-88.17776-46.54846,143.35862,143.35862,0,0,0-30.27955-1.16923,146.40735,146.40735,0,0,0-82.53728,31.81054,140.06663,140.06663,0,0,0-16.97616,15.84186,4.72839,4.72839,0,0,1-3.86326,1.75742c-10.12056-.07028-20.24188-.035-30.36293-.03495h-2.15212c.618-2.408,6.84026-10.93786,13.88352-18.55281C125.31349,132.2744,130.87768,126.8839,136.52938,121.13478Z"/>
        <path fill="#0f1689" d="M394.52934,347.9123a176.63854,176.63854,0,0,1-23.97343,27.16338c.70941.59068,1.28594,1.07041,1.86212,1.55057A108.31456,108.31456,0,0,1,406.10131,424.772a34.61831,34.61831,0,0,1,2.202,14.42026,14.88544,14.88544,0,0,1-.74786,3.69206,7.20762,7.20762,0,0,1-8.15793,5.02308,22.23329,22.23329,0,0,1-6.76276-2.00629,51.23237,51.23237,0,0,1-9.18151-5.8151,107.59183,107.59183,0,0,1-32.936-46.7072c-.18746-.51334-.39218-1.0204-.72243-1.87691a194.65008,194.65008,0,0,1-25.01223,14.00774,181.66925,181.66925,0,0,1-26.6869,9.72442,187.55649,187.55649,0,0,1-28.3045,5.38805c.16807.84015.26446,1.5098.43745,2.15907a109.172,109.172,0,0,1,2.9708,36.44311,80.804,80.804,0,0,1-4.42286,22.4773,78.24971,78.24971,0,0,1-4.16475,8.74473,13.39,13.39,0,0,1-2.33865,2.97083c-3.98009,4.109-8.73225,4.144-12.61157-.07366a27.28012,27.28012,0,0,1-3.907-5.61776c-3.07685-5.77569-4.6604-12.056-5.791-18.46021a116.86329,116.86329,0,0,1-1.35893-26.465,94.4795,94.4795,0,0,1,2.88466-19.18513c.14009-.53269.268-1.0696.37134-1.61034.02629-.13754-.06342-.2973-.17067-.73825a176.12108,176.12108,0,0,1-80.96855-24.99386c-.40992.90921-.76206,1.67473-1.10168,2.44579a110.47729,110.47729,0,0,1-30.90112,41.42041,38.16071,38.16071,0,0,1-12.04706,6.95909,12.08987,12.08987,0,0,1-6.51516.70023,7.11858,7.11858,0,0,1-5.40329-4.4892c-1.41614-3.424-1.16526-6.985-.68438-10.51691a55.45267,55.45267,0,0,1,4.30768-14.25037A112.49985,112.49985,0,0,1,134.88761,380.779c.459-.43461.92981-.857,1.38087-1.29954a3.76029,3.76029,0,0,0,.36534-.65529,178.90466,178.90466,0,0,1-28.469-31.31672c.98458-.08018,1.64327-.18,2.30205-.1806,10.51436-.00976,21.029.02736,31.54284-.04358a4.70554,4.70554,0,0,1,3.70344,1.62615,146.94611,146.94611,0,0,0,39.40276,28.88494,139.94667,139.94667,0,0,0,49.70395,14.77367q70.68048,6.87067,121.59971-42.85452a7.64571,7.64571,0,0,1,5.99261-2.44347c9.80139.12121,19.60512.04986,29.408.04986h2.53353Z"/>
        <path fill="#0f1689" d="M350.73576,197.76167c2.78711,0,5.47037.18919,8.11487-.0501,2.9951-.271,5.139.8001,7.32354,2.81308,12.61275,11.62214,25.35732,23.10129,38.05863,34.62729.63855.57948,1.29039,1.14432,2.1101,1.8701.76445-.65718,1.48119-1.24318,2.16483-1.8655Q428.14636,217.27914,447.756,199.37a5.44772,5.44772,0,0,1,4.20358-1.64576c3.21888.13038,6.44673.03746,9.8412.03746V303.13036c-1.72309.50368-24.8756.60366-27.63911.0611v-53.362l-.53656-.25427c-9.01079,8.21784-18.0216,16.43564-27.23786,24.8408-9.22584-8.31119-18.34194-16.52347-27.458-24.73577l-.52449.19192c-.023,4.45359-.00774,8.90828-.01046,13.36233q-.00408,6.63942-.00058,13.27882v26.87211h-27.428C350.45161,301.61243,350.21289,203.72342,350.73576,197.76167Z"/>
        <path fill="#0f1689" d="M97.63436,197.88229h27.26325c.55054,1.75251.65821,102.97139.09469,105.525H97.70468c-.15021-6.70344-.04736-13.38394-.06622-20.06131-.01871-6.62261-.0041-13.24531-.0041-20.03958H63.84679V303.047c-2.05946.61518-25.33374.67417-27.64758.123V197.89436H63.73742v37.18876c1.96793.56844,30.92319.67339,33.872.12942.00818-2.97713.02-6.02646.024-9.0758q.0063-4.7433.00094-9.4866,0-4.625,0-9.25C97.63437,204.32179,97.63436,201.24346,97.63436,197.88229Z"/>
        <path fill="#0f1689" d="M157.5757,303.3683V198.1946c1.617-.52913,61.545-.73586,65.46219-.20457v22.41432c-.87869.063-1.7857.18341-2.69279.18454q-16.0086.01994-32.01725.00881l-2.96767,0v17.43353H218.7067V261.2229H185.65838c-.55339,1.98509-.70531,15.81681-.25622,19.64583.84488.05679,1.75.16952,2.6553.17059q16.00862.01863,32.01727.00822h2.96945V303.3683Z"/>
        <path fill="#0f1689" d="M254.28291,303.40855c-.50074-2.82232-.39948-103.60181.09747-105.51735h27.16208v77.76453c1.17173.06084,2.09122.14921,3.01077.15005q16.128.01468,32.2561.00658c.92562,0,1.85125,0,2.90733,0v27.59622Z"/>
    </svg>

    <symbol xmlns="http://www.w3.org/2000/svg" viewBox="0 0 97 97" id="git">
        <path fill="#F05133" d="M92.71,44.408L52.591,4.291c-2.31-2.311-6.057-2.311-8.369,0l-8.33,8.332L46.459,23.19 c2.456-0.83,5.272-0.273,7.229,1.685c1.969,1.97,2.521,4.81,1.67,7.275l10.186,10.185c2.465-0.85,5.307-0.3,7.275,1.671 c2.75,2.75,2.75,7.206,0,9.958c-2.752,2.751-7.208,2.751-9.961,0c-2.068-2.07-2.58-5.11-1.531-7.658l-9.5-9.499v24.997 c0.67,0.332,1.303,0.774,1.861,1.332c2.75,2.75,2.75,7.206,0,9.959c-2.75,2.749-7.209,2.749-9.957,0c-2.75-2.754-2.75-7.21,0-9.959 c0.68-0.679,1.467-1.193,2.307-1.537V36.369c-0.84-0.344-1.625-0.853-2.307-1.537c-2.083-2.082-2.584-5.14-1.516-7.698 L31.798,16.715L4.288,44.222c-2.311,2.313-2.311,6.06,0,8.371l40.121,40.118c2.31,2.311,6.056,2.311,8.369,0L92.71,52.779 C95.021,50.468,95.021,46.719,92.71,44.408z"/>
    </symbol>

    <symbol xmlns="http://www.w3.org/2000/svg" viewBox="0 0 256 220" id="redis">
        <path d="M245.97 168.943c-13.662 7.121-84.434 36.22-99.501 44.075-15.067 7.856-23.437 7.78-35.34 2.09-11.902-5.69-87.216-36.112-100.783-42.597C3.566 169.271 0 166.535 0 163.951v-25.876s98.05-21.345 113.879-27.024c15.828-5.679 21.32-5.884 34.79-.95 13.472 4.936 94.018 19.468 107.331 24.344l-.006 25.51c.002 2.558-3.07 5.364-10.024 8.988" fill="#912626"/>
        <path d="M245.965 143.22c-13.661 7.118-84.431 36.218-99.498 44.072-15.066 7.857-23.436 7.78-35.338 2.09-11.903-5.686-87.214-36.113-100.78-42.594-13.566-6.485-13.85-10.948-.524-16.166 13.326-5.22 88.224-34.605 104.055-40.284 15.828-5.677 21.319-5.884 34.789-.948 13.471 4.934 83.819 32.935 97.13 37.81 13.316 4.881 13.827 8.9.166 16.02" fill="#C6302B"/>
        <path d="M245.97 127.074c-13.662 7.122-84.434 36.22-99.501 44.078-15.067 7.853-23.437 7.777-35.34 2.087-11.903-5.687-87.216-36.112-100.783-42.597C3.566 127.402 0 124.67 0 122.085V96.206s98.05-21.344 113.879-27.023c15.828-5.679 21.32-5.885 34.79-.95C162.142 73.168 242.688 87.697 256 92.574l-.006 25.513c.002 2.557-3.07 5.363-10.024 8.987" fill="#912626"/>
        <path d="M245.965 101.351c-13.661 7.12-84.431 36.218-99.498 44.075-15.066 7.854-23.436 7.777-35.338 2.087-11.903-5.686-87.214-36.112-100.78-42.594-13.566-6.483-13.85-10.947-.524-16.167C23.151 83.535 98.05 54.148 113.88 48.47c15.828-5.678 21.319-5.884 34.789-.949 13.471 4.934 83.819 32.933 97.13 37.81 13.316 4.88 13.827 8.9.166 16.02" fill="#C6302B"/>
        <path d="M245.97 83.653c-13.662 7.12-84.434 36.22-99.501 44.078-15.067 7.854-23.437 7.777-35.34 2.087-11.903-5.687-87.216-36.113-100.783-42.595C3.566 83.98 0 81.247 0 78.665v-25.88s98.05-21.343 113.879-27.021c15.828-5.68 21.32-5.884 34.79-.95C162.142 29.749 242.688 44.278 256 49.155l-.006 25.512c.002 2.555-3.07 5.361-10.024 8.986" fill="#912626"/>
        <path d="M245.965 57.93c-13.661 7.12-84.431 36.22-99.498 44.074-15.066 7.854-23.436 7.777-35.338 2.09C99.227 98.404 23.915 67.98 10.35 61.497-3.217 55.015-3.5 50.55 9.825 45.331 23.151 40.113 98.05 10.73 113.88 5.05c15.828-5.679 21.319-5.883 34.789-.948 13.471 4.935 83.819 32.934 97.13 37.811 13.316 4.876 13.827 8.897.166 16.017" fill="#C6302B"/>
        <path d="M159.283 32.757l-22.01 2.285-4.927 11.856-7.958-13.23-25.415-2.284 18.964-6.839-5.69-10.498 17.755 6.944 16.738-5.48-4.524 10.855 17.067 6.391M131.032 90.275L89.955 73.238l58.86-9.035-17.783 26.072M74.082 39.347c17.375 0 31.46 5.46 31.46 12.194 0 6.736-14.085 12.195-31.46 12.195s-31.46-5.46-31.46-12.195c0-6.734 14.085-12.194 31.46-12.194" fill="#FFF"/>
        <path d="M185.295 35.998l34.836 13.766-34.806 13.753-.03-27.52" fill="#621B1C"/>
        <path d="M146.755 51.243l38.54-15.245.03 27.519-3.779 1.478-34.791-13.752" fill="#9A2928"/>
    </symbol>

    <symbol xmlns="http://www.w3.org/2000/svg" viewBox="0 0 432.071 445.383" id="postgresql">
        <g id="Layer_x0020_3" style="fill-rule:nonzero;clip-rule:nonzero;fill:none;stroke:#FFFFFF;stroke-width:12.4651;stroke-linecap:round;stroke-linejoin:round;stroke-miterlimit:4;">
            <path style="fill:#000000;stroke:#000000;stroke-width:37.3953;stroke-linecap:butt;stroke-linejoin:miter;" d="M323.205,324.227c2.833-23.601,1.984-27.062,19.563-23.239l4.463,0.392c13.517,0.615,31.199-2.174,41.587-7c22.362-10.376,35.622-27.7,13.572-23.148c-50.297,10.376-53.755-6.655-53.755-6.655c53.111-78.803,75.313-178.836,56.149-203.322    C352.514-5.534,262.036,26.049,260.522,26.869l-0.482,0.089c-9.938-2.062-21.06-3.294-33.554-3.496c-22.761-0.374-40.032,5.967-53.133,15.904c0,0-161.408-66.498-153.899,83.628c1.597,31.936,45.777,241.655,98.47,178.31    c19.259-23.163,37.871-42.748,37.871-42.748c9.242,6.14,20.307,9.272,31.912,8.147l0.897-0.765c-0.281,2.876-0.157,5.689,0.359,9.019c-13.572,15.167-9.584,17.83-36.723,23.416c-27.457,5.659-11.326,15.734-0.797,18.367c12.768,3.193,42.305,7.716,62.268-20.224    l-0.795,3.188c5.325,4.26,4.965,30.619,5.72,49.452c0.756,18.834,2.017,36.409,5.856,46.771c3.839,10.36,8.369,37.05,44.036,29.406c29.809-6.388,52.6-15.582,54.677-101.107"/>
            <path style="fill:#336791;stroke:none;" d="M402.395,271.23c-50.302,10.376-53.76-6.655-53.76-6.655c53.111-78.808,75.313-178.843,56.153-203.326c-52.27-66.785-142.752-35.2-144.262-34.38l-0.486,0.087c-9.938-2.063-21.06-3.292-33.56-3.496c-22.761-0.373-40.026,5.967-53.127,15.902    c0,0-161.411-66.495-153.904,83.63c1.597,31.938,45.776,241.657,98.471,178.312c19.26-23.163,37.869-42.748,37.869-42.748c9.243,6.14,20.308,9.272,31.908,8.147l0.901-0.765c-0.28,2.876-0.152,5.689,0.361,9.019c-13.575,15.167-9.586,17.83-36.723,23.416    c-27.459,5.659-11.328,15.734-0.796,18.367c12.768,3.193,42.307,7.716,62.266-20.224l-0.796,3.188c5.319,4.26,9.054,27.711,8.428,48.969c-0.626,21.259-1.044,35.854,3.147,47.254c4.191,11.4,8.368,37.05,44.042,29.406c29.809-6.388,45.256-22.942,47.405-50.555    c1.525-19.631,4.976-16.729,5.194-34.28l2.768-8.309c3.192-26.611,0.507-35.196,18.872-31.203l4.463,0.392c13.517,0.615,31.208-2.174,41.591-7c22.358-10.376,35.618-27.7,13.573-23.148z"/>
            <path d="M215.866,286.484c-1.385,49.516,0.348,99.377,5.193,111.495c4.848,12.118,15.223,35.688,50.9,28.045c29.806-6.39,40.651-18.756,45.357-46.051c3.466-20.082,10.148-75.854,11.005-87.281"/>
            <path d="M173.104,38.256c0,0-161.521-66.016-154.012,84.109c1.597,31.938,45.779,241.664,98.473,178.316c19.256-23.166,36.671-41.335,36.671-41.335"/>
            <path d="M260.349,26.207c-5.591,1.753,89.848-34.889,144.087,34.417c19.159,24.484-3.043,124.519-56.153,203.329"/>
            <path style="stroke-linejoin:bevel;" d="M348.282,263.953c0,0,3.461,17.036,53.764,6.653c22.04-4.552,8.776,12.774-13.577,23.155c-18.345,8.514-59.474,10.696-60.146-1.069c-1.729-30.355,21.647-21.133,19.96-28.739c-1.525-6.85-11.979-13.573-18.894-30.338    c-6.037-14.633-82.796-126.849,21.287-110.183c3.813-0.789-27.146-99.002-124.553-100.599c-97.385-1.597-94.19,119.762-94.19,119.762"/>
            <path d="M188.604,274.334c-13.577,15.166-9.584,17.829-36.723,23.417c-27.459,5.66-11.326,15.733-0.797,18.365c12.768,3.195,42.307,7.718,62.266-20.229c6.078-8.509-0.036-22.086-8.385-25.547c-4.034-1.671-9.428-3.765-16.361,3.994z"/>
            <path d="M187.715,274.069c-1.368-8.917,2.93-19.528,7.536-31.942c6.922-18.626,22.893-37.255,10.117-96.339c-9.523-44.029-73.396-9.163-73.436-3.193c-0.039,5.968,2.889,30.26-1.067,58.548c-5.162,36.913,23.488,68.132,56.479,64.938"/>
            <path style="fill:#FFFFFF;stroke-width:4.155;stroke-linecap:butt;stroke-linejoin:miter;" d="M172.517,141.7c-0.288,2.039,3.733,7.48,8.976,8.207c5.234,0.73,9.714-3.522,9.998-5.559c0.284-2.039-3.732-4.285-8.977-5.015c-5.237-0.731-9.719,0.333-9.996,2.367z"/>
            <path style="fill:#FFFFFF;stroke-width:2.0775;stroke-linecap:butt;stroke-linejoin:miter;" d="M331.941,137.543c0.284,2.039-3.732,7.48-8.976,8.207c-5.238,0.73-9.718-3.522-10.005-5.559c-0.277-2.039,3.74-4.285,8.979-5.015c5.239-0.73,9.718,0.333,10.002,2.368z"/>
            <path d="M350.676,123.432c0.863,15.994-3.445,26.888-3.988,43.914c-0.804,24.748,11.799,53.074-7.191,81.435"/>
            <path style="stroke-width:3;" d="M0,60.232"/>
        </g>
    </symbol>

    <symbol xmlns="http://www.w3.org/2000/svg" viewBox="0 0 391 202" id="mysql">
        <g transform="translate(0.738281, 121.593)" style="fill:#00618a; fill-rule:nonzero; stroke:none; stroke-width:0.87088; stroke-linecap:butt; stroke-linejoin:miter; stroke-dasharray:none;" >
            <path d="M0 62.235 C0 62.235 12.8418 62.235 12.8418 62.235 C12.8418 62.235 12.8418 11.524 12.8418 11.524 C12.8418 11.524 32.7226 55.732 32.7226 55.732 C35.0683 61.083 38.2793 62.976 44.5762 62.976 C50.874 62.976 53.9609 61.083 56.3076 55.732 C56.3076 55.732 76.1875 11.524 76.1875 11.524 C76.1875 11.524 76.1875 62.235 76.1875 62.235 C76.1875 62.235 89.0303 62.235 89.0303 62.235 C89.0303 62.235 89.0303 11.607 89.0303 11.607 C89.0303 6.668 87.0537 4.28 82.9795 3.046 C73.2246 0 66.6797 2.634 63.7158 9.22 C63.7158 9.22 44.206 52.85 44.206 52.85 C44.206 52.85 25.3135 9.22 25.3135 9.22 C22.4736 2.634 15.8056 0 6.05078 3.046 C1.97559 4.28 0 6.668 0 11.607 C0 11.607 0 62.235 0 62.235 Z" />
        </g>
        <g transform="translate(100.444, 142.416)" style="fill:#00618a; fill-rule:nonzero; stroke:none; stroke-width:0.87088; stroke-linecap:butt; stroke-linejoin:miter; stroke-dasharray:none;" >
            <path d="M0.002 0.136 C0.002 0.136 12.84 0.136 12.84 0.136 C12.84 0.136 12.84 28.074 12.84 28.074 C12.72 29.592 13.327 33.154 20.362 33.265 C23.951 33.321 48.062 33.265 48.287 33.265 C48.287 33.265 48.287 0 48.287 0 C48.287 0 61.155 0 61.155 0 C61.214 0 61.142 45.364 61.143 45.557 C61.214 56.745 47.261 59.175 40.83 59.363 C40.83 59.363 0.281 59.363 0.281 59.363 C0.281 59.363 0.281 50.724 0.281 50.724 C0.352 50.724 40.8 50.732 40.902 50.722 C49.167 49.849 48.191 45.741 48.19 44.358 C48.19 44.358 48.19 40.99 48.19 40.99 C48.19 40.99 20.895 40.99 20.895 40.99 C8.196 40.873 0.109 35.331 0.009 28.955 C0 28.364 0.283 0.415 0.002 0.136 Z" />
        </g>
        <g transform="translate(171.496, 124.557)" style="fill:#e48e00; fill-rule:nonzero; stroke:none; stroke-width:0.87088; stroke-linecap:butt; stroke-linejoin:miter; stroke-dasharray:none;" >
            <path d="M0 59.271 C0 59.271 36.92 59.271 36.92 59.271 C41.242 59.271 45.441 58.366 48.775 56.801 C54.331 54.25 57.048 50.793 57.048 46.264 C57.048 46.264 57.048 36.88 57.048 36.88 C57.048 33.175 53.961 29.717 47.91 27.413 C44.699 26.177 40.748 25.519 36.92 25.519 C36.92 25.519 21.361 25.519 21.361 25.519 C16.176 25.519 13.706 23.955 13.089 20.498 C12.965 20.086 12.965 19.756 12.965 19.345 C12.965 19.345 12.965 13.501 12.965 13.501 C12.965 13.171 12.965 12.841 13.089 12.43 C13.706 9.796 15.065 9.054 19.633 8.643 C20.004 8.643 20.497 8.56 20.868 8.56 C20.868 8.56 57.542 8.56 57.542 8.56 C57.542 8.56 57.542 0 57.542 0 C57.542 0 21.485 0 21.485 0 C16.299 0 13.582 0.329 11.113 1.069 C3.457 3.457 0.123 7.244 0.123 13.83 C0.123 13.83 0.123 21.321 0.123 21.321 C0.123 27.084 6.668 32.023 17.657 33.175 C18.893 33.257 20.127 33.339 21.361 33.339 C21.361 33.339 34.697 33.339 34.697 33.339 C35.192 33.339 35.686 33.339 36.056 33.422 C40.131 33.752 41.859 34.492 43.095 35.974 C43.835 36.714 44.082 37.456 44.082 38.279 C44.082 38.279 44.082 45.77 44.082 45.77 C44.082 46.676 43.465 47.829 42.231 48.816 C41.119 49.804 39.267 50.463 36.797 50.628 C36.303 50.628 35.933 50.71 35.439 50.71 C35.439 50.71 0 50.71 0 50.71 C0 50.71 0 59.271 0 59.271 Z" />
        </g>
        <g transform="translate(308.656, 124.557)" style="fill:#e48e00; fill-rule:nonzero; stroke:none; stroke-width:0.87088; stroke-linecap:butt; stroke-linejoin:miter; stroke-dasharray:none;" >
            <path d="M0 44.371 C0 53.179 6.544 58.119 19.757 59.107 C20.991 59.189 22.227 59.271 23.461 59.271 C23.461 59.271 56.925 59.271 56.925 59.271 C56.925 59.271 56.925 50.71 56.925 50.71 C56.925 50.71 23.214 50.71 23.214 50.71 C15.682 50.71 12.842 48.816 12.842 44.289 C12.842 44.289 12.842 0 12.842 0 C12.842 0 0 0 0 0 C0 0 0 44.371 0 44.371 Z" />
        </g>
        <g transform="translate(236.74, 124.666)" style="fill:#e48e00; fill-rule:nonzero; stroke:none; stroke-width:0.87088; stroke-linecap:butt; stroke-linejoin:miter; stroke-dasharray:none;" >
            <path d="M0 44.711 C0 44.711 0 14.189 0 14.189 C0 6.435 5.445 1.732 16.209 0.247 C17.323 0.083 18.561 0 19.674 0 C19.674 0 44.05 0 44.05 0 C45.287 0 46.402 0.083 47.639 0.247 C58.404 1.732 63.848 6.435 63.848 14.189 C63.848 14.189 63.848 44.711 63.848 44.711 C63.848 51.002 61.536 54.369 56.207 56.563 C56.207 56.563 68.857 67.981 68.857 67.981 C68.857 67.981 53.946 67.981 53.946 67.981 C53.946 67.981 43.712 58.743 43.712 58.743 C43.712 58.743 33.409 59.396 33.409 59.396 C33.409 59.396 19.674 59.396 19.674 59.396 C17.323 59.396 14.849 59.065 12.126 58.323 C3.96 56.096 0 51.806 0 44.711 Z M13.861 43.969 C13.861 44.382 13.984 44.794 14.108 45.289 C14.85 48.836 18.191 50.816 23.264 50.816 C23.264 50.816 34.931 50.816 34.931 50.816 C34.931 50.816 24.214 41.141 24.214 41.141 C24.214 41.141 39.125 41.141 39.125 41.141 C39.125 41.141 48.472 49.579 48.472 49.579 C50.194 48.661 51.328 47.257 51.724 45.454 C51.847 45.042 51.847 44.629 51.847 44.217 C51.847 44.217 51.847 14.932 51.847 14.932 C51.847 14.602 51.847 14.189 51.724 13.776 C50.981 10.477 47.64 8.58 42.691 8.58 C42.691 8.58 23.264 8.58 23.264 8.58 C17.573 8.58 13.861 11.055 13.861 14.932 C13.861 14.932 13.861 43.969 13.861 43.969 Z" />
        </g>
        <g transform="translate(241.59, -4.64258)" style="fill:#00618a; fill-rule:nonzero; stroke:none; stroke-width:0.87088; stroke-linecap:butt; stroke-linejoin:miter; stroke-dasharray:none;" >
            <path d="M135.289 114.997 C127.395 114.783 121.365 115.517 116.21 117.691 C114.745 118.309 112.409 118.325 112.17 120.161 C112.975 121.005 113.1 122.265 113.74 123.303 C114.971 125.295 117.049 127.964 118.903 129.364 C120.929 130.893 123.017 132.529 125.189 133.853 C129.052 136.209 133.365 137.554 137.085 139.914 C139.277 141.305 141.455 143.057 143.594 144.627 C144.651 145.403 145.362 146.61 146.736 147.096 C146.736 147.022 146.736 146.947 146.736 146.872 C146.014 145.953 145.828 144.689 145.165 143.729 C144.193 142.757 143.22 141.784 142.247 140.811 C139.394 137.024 135.772 133.698 131.922 130.935 C128.852 128.731 121.98 125.754 120.699 122.181 C120.624 122.106 120.55 122.031 120.474 121.956 C122.651 121.711 125.2 120.923 127.209 120.385 C130.584 119.48 133.6 119.714 137.085 118.814 C138.656 118.365 140.227 117.915 141.799 117.467 C141.799 117.167 141.799 116.869 141.799 116.569 C140.037 114.761 138.781 112.369 136.86 110.733 C131.834 106.453 126.348 102.177 120.699 98.6114 C117.566 96.6338 113.694 95.3487 110.374 93.6729 C109.257 93.1094 107.295 92.8164 106.557 91.877 C104.813 89.6533 103.863 86.835 102.518 84.2451 C99.7 78.8194 96.933 72.8936 94.437 67.1856 C92.734 63.293 91.622 59.4541 89.499 55.9619 C79.307 39.2051 68.336 29.0908 51.341 19.1494 C47.725 17.0352 43.371 16.2002 38.77 15.1094 C36.302 14.96 33.832 14.8096 31.363 14.6602 C29.856 14.0303 28.288 12.1865 26.874 11.293 C21.244 7.73633 6.803 0 2.633 10.1709 C0 16.5908 6.568 22.8555 8.917 26.1084 C10.566 28.3906 12.677 30.9492 13.855 33.5156 C14.63 35.2022 14.764 36.8936 15.427 38.6787 C17.059 43.0752 18.478 47.8584 20.589 51.9219 C21.656 53.9776 22.832 56.1436 24.181 57.9824 C25.008 59.1104 26.425 59.6074 26.649 61.3496 C25.263 63.2891 25.184 66.2998 24.405 68.7569 C20.897 79.8184 22.22 93.5674 27.323 101.754 C28.889 104.267 32.577 109.657 37.648 107.59 C42.084 105.783 41.093 100.184 42.362 95.2442 C42.649 94.124 42.473 93.3008 43.035 92.5508 C43.035 92.625 43.035 92.7002 43.035 92.7754 C44.382 95.4688 45.729 98.1621 47.076 100.855 C50.066 105.671 55.373 110.704 59.87 114.1 C62.202 115.861 64.038 118.906 67.053 119.936 C67.053 119.861 67.053 119.787 67.053 119.711 C66.977 119.711 66.903 119.711 66.828 119.711 C66.244 118.8 65.33 118.423 64.584 117.691 C62.827 115.969 60.874 113.828 59.421 111.855 C55.331 106.302 51.716 100.224 48.423 93.8975 C46.85 90.877 45.483 87.544 44.157 84.4697 C43.646 83.2842 43.652 81.4922 42.587 80.878 C41.135 83.1309 38.996 84.9522 37.873 87.6123 C36.077 91.8643 35.845 97.0498 35.18 102.427 C34.786 102.568 34.961 102.471 34.73 102.651 C31.604 101.897 30.505 98.6787 29.344 95.918 C26.405 88.9356 25.859 77.6924 28.445 69.6553 C29.114 67.5762 32.138 61.0264 30.914 59.1055 C30.33 57.1885 28.402 56.0801 27.323 54.6153 C25.988 52.8047 24.655 50.4209 23.731 48.3301 C21.326 42.8858 20.203 36.7744 17.671 31.2715 C16.461 28.6406 14.414 25.9785 12.733 23.6397 C10.872 21.0489 8.788 19.1406 7.346 16.0069 C6.833 14.8936 6.136 13.1113 6.897 11.9668 C7.139 11.1943 7.48 10.8721 8.244 10.6201 C9.546 9.61621 13.172 10.9541 14.528 11.5176 C18.128 13.0127 21.132 14.4365 24.181 16.4561 C25.645 17.4268 27.125 19.3037 28.894 19.8233 C29.567 19.8233 30.241 19.8233 30.914 19.8233 C34.074 20.5498 37.614 20.0489 40.566 20.9453 C45.784 22.5313 50.46 24.9981 54.707 27.6797 C67.645 35.8487 78.223 47.4776 85.459 61.3496 C86.623 63.583 87.127 65.7149 88.152 68.084 C90.221 72.8614 92.827 77.7774 94.885 82.4492 C96.939 87.1104 98.941 91.8145 101.844 95.6934 C103.371 97.7324 109.266 98.8262 111.945 99.958 C113.823 100.752 116.9 101.579 118.679 102.651 C122.077 104.701 125.369 107.141 128.556 109.386 C130.149 110.508 135.045 112.969 135.289 114.997 Z" />
        </g>
        <g transform="translate(272.504, 24.8027)" style="fill:#00618a; fill-rule:evenodd; stroke:none; stroke-width:0.87088; stroke-linecap:butt; stroke-linejoin:miter; stroke-dasharray:none;" >
            <path d="M4.041 0.0303 C2.395 0 1.231 0.21 0 0.4786 C0 0.5537 0 0.6289 0 0.7032 C0.075 0.7032 0.15 0.7032 0.225 0.7032 C1.01 2.3164 2.396 3.3545 3.367 4.7442 C4.115 6.3155 4.863 7.8868 5.612 9.4571 C5.686 9.3828 5.762 9.3077 5.836 9.2334 C7.226 8.2539 7.863 6.6866 7.856 4.295 C7.299 3.709 7.217 2.9737 6.734 2.2744 C6.092 1.3428 4.85 0.8135 4.041 0.0303 Z" />
        </g>
        <g transform="translate(371.609, 165.56)" style="fill:#e48e00; fill-rule:evenodd; stroke:none; stroke-width:1; stroke-linecap:butt; stroke-linejoin:miter; stroke-dasharray:none;" >
            <path d="M0 9.463 C0 15.117 4.467 18.927 9.464 18.927 C14.461 18.927 18.928 15.117 18.928 9.463 C18.928 3.81 14.461 0 9.464 0 C4.467 0 0 3.81 0 9.463 Z M16.808 9.463 C16.808 13.753 13.528 16.959 9.464 16.959 C5.351 16.959 2.12 13.753 2.12 9.463 C2.12 5.173 5.351 1.967 9.464 1.967 C13.528 1.967 16.808 5.173 16.808 9.463 Z M12.014 14.864 C12.014 14.864 14.133 14.864 14.133 14.864 C14.133 14.864 11.03 10.12 11.03 10.12 C12.695 9.943 13.956 9.135 13.956 7.167 C13.956 4.971 12.569 4.063 9.894 4.063 C9.894 4.063 5.679 4.063 5.679 4.063 C5.679 4.063 5.679 14.864 5.679 14.864 C5.679 14.864 7.496 14.864 7.496 14.864 C7.496 14.864 7.496 10.195 7.496 10.195 C7.496 10.195 9.187 10.195 9.187 10.195 C9.187 10.195 12.014 14.864 12.014 14.864 Z M7.496 8.681 C7.496 8.681 7.496 5.577 7.496 5.577 C7.496 5.577 9.59 5.577 9.59 5.577 C10.676 5.577 11.988 5.779 11.988 7.041 C11.988 8.554 10.802 8.681 9.439 8.681 C9.439 8.681 7.496 8.681 7.496 8.681 Z" />
        </g>
    </symbol>

    <symbol xmlns="http://www.w3.org/2000/svg" viewBox="0 0 205.4 76.7" id="go">
        <path d="M15.5,23.2c-0.4,0-0.5-0.2-0.3-0.5l2.1-2.7c0.2-0.3,0.7-0.5,1.1-0.5h35.7c0.4,0,0.5,0.3,0.3,0.6l-1.7,2.6 c-0.2,0.3-0.7,0.6-1,0.6L15.5,23.2z" fill="#00ACD7" />
        <path d="M0.4,32.4c-0.4,0-0.5-0.2-0.3-0.5l2.1-2.7c0.2-0.3,0.7-0.5,1.1-0.5h45.6c0.4,0,0.6,0.3,0.5,0.6l-0.8,2.4 c-0.1,0.4-0.5,0.6-0.9,0.6L0.4,32.4z" fill="#00ACD7" />
        <path d="M24.6,41.6c-0.4,0-0.5-0.3-0.3-0.6l1.4-2.5c0.2-0.3,0.6-0.6,1-0.6h20c0.4,0,0.6,0.3,0.6,0.7L47.1,41 c0,0.4-0.4,0.7-0.7,0.7L24.6,41.6z" fill="#00ACD7" />
        <path d="M128.4,21.4c-6.3,1.6-10.6,2.8-16.8,4.4c-1.5,0.4-1.6,0.5-2.9-1c-1.5-1.7-2.6-2.8-4.7-3.8 c-6.3-3.1-12.4-2.2-18.1,1.5c-6.8,4.4-10.3,10.9-10.2,19c0.1,8,5.6,14.6,13.5,15.7c6.8,0.9,12.5-1.5,17-6.6 c0.9-1.1,1.7-2.3,2.7-3.7c-3.6,0-8.1,0-19.3,0c-2.1,0-2.6-1.3-1.9-3c1.3-3.1,3.7-8.3,5.1-10.9c0.3-0.6,1-1.6,2.5-1.6 c5.1,0,23.9,0,36.4,0c-0.2,2.7-0.2,5.4-0.6,8.1c-1.1,7.2-3.8,13.8-8.2,19.6c-7.2,9.5-16.6,15.4-28.5,17 c-9.8,1.3-18.9-0.6-26.9-6.6c-7.4-5.6-11.6-13-12.7-22.2c-1.3-10.9,1.9-20.7,8.5-29.3c7.1-9.3,16.5-15.2,28-17.3 c9.4-1.7,18.4-0.6,26.5,4.9c5.3,3.5,9.1,8.3,11.6,14.1C130,20.6,129.6,21.1,128.4,21.4z" fill="#00ACD7" />
        <path d="M161.5,76.7c-9.1-0.2-17.4-2.8-24.4-8.8c-5.9-5.1-9.6-11.6-10.8-19.3c-1.8-11.3,1.3-21.3,8.1-30.2 c7.3-9.6,16.1-14.6,28-16.7c10.2-1.8,19.8-0.8,28.5,5.1c7.9,5.4,12.8,12.7,14.1,22.3c1.7,13.5-2.2,24.5-11.5,33.9 c-6.6,6.7-14.7,10.9-24,12.8C166.8,76.3,164.1,76.4,161.5,76.7z M185.3,36.3c-0.1-1.3-0.1-2.3-0.3-3.3 c-1.8-9.9-10.9-15.5-20.4-13.3c-9.3,2.1-15.3,8-17.5,17.4c-1.8,7.8,2,15.7,9.2,18.9c5.5,2.4,11,2.1,16.3-0.6 C180.5,51.3,184.8,44.9,185.3,36.3z" fill="#00ACD7" />
    </symbol>

    <symbol xmlns="http://www.w3.org/2000/svg" viewBox="0 0 411 155" id="ruby-on-rails">
        <g fill="#CC0000" fill-rule="evenodd" transform="translate(8 8)">
            <path d="M344.6 121.5L344.6 139.6 377.3 139.6C384 139.6 395.5 134.7 395.9 121L395.9 114C395.9 102.3 386.3 95.4 377.3 95.4L361 95.4 361 87 393.3 87 393.3 68.8 362.3 68.8C354.3 68.8 343.6 75.4 343.6 87.7L343.6 94C343.6 106.3 354.2 112.6 362.3 112.6 384.8 112.7 356.9 112.6 377.7 112.6L377.7 121.4M169.4 117.1C169.4 117.1 186.9 115.6 186.9 93 186.9 70.4 165.7 68.3 165.7 68.3L127.5 68.3 127.5 139.6 146.7 139.6 146.7 122.4 163.3 139.6 191.7 139.6 169.4 117.1zM162 102.5L146.7 102.5 146.7 86.2 162.1 86.2C162.1 86.2 166.4 87.8 166.4 94.3 166.4 100.8 162 102.5 162 102.5zM234.3 68.8L214.8 68.8C200.9 68.8 196.2 81.4 196.2 87.4L196.2 139.6 215.7 139.6 215.7 127.1 234 127.1 234 139.6 252.9 139.6 252.9 87.4C252.9 72.2 239.1 68.8 234.3 68.8zM234 106.9L215.6 106.9 215.6 89.6C215.6 89.6 215.6 85.7 221.7 85.7L228.4 85.7C233.8 85.7 233.9 89.6 233.9 89.6L233.9 106.9 234 106.9z"/>
            <rect width="20.3" height="70.8" x="261.8" y="68.8"/>
            <polygon points="310.6 121.3 310.6 68.8 290.4 68.8 290.4 121.3 290.4 139.6 310.6 139.6 337.9 139.6 337.9 121.3"/>
            <path d="M7,139.6 L86,139.6 C86,139.6 70.9,70.7 120.9,42.8 C131.8,37.5 166.5,17.7 223.3,59.7 C225.1,58.2 226.8,57 226.8,57 C226.8,57 174.8,5.1 116.9,10.9 C87.8,13.5 52,40 31,75 C10,110 7,139.6 7,139.6 Z"/>
            <path d="M7,139.6 L86,139.6 C86,139.6 70.9,70.7 120.9,42.8 C131.8,37.5 166.5,17.7 223.3,59.7 C225.1,58.2 226.8,57 226.8,57 C226.8,57 174.8,5.1 116.9,10.9 C87.8,13.5 52,40 31,75 C10,110 7,139.6 7,139.6 Z"/>
            <path d="M7 139.6L86 139.6C86 139.6 70.9 70.7 120.9 42.8 131.8 37.5 166.5 17.7 223.3 59.7 225.1 58.2 226.8 57 226.8 57 226.8 57 174.8 5.1 116.9 10.9 87.7 13.5 51.9 40 30.9 75 9.9 110 7 139.6 7 139.6zM171.6 16.5L172 9.8C171.1 9.3 168.6 8.1 162.3 6.3L161.9 12.9C165.2 14 168.4 15.2 171.6 16.5z"/>
            <path d="M162.1 37.7L161.7 44C165 44.1 168.3 44.5 171.6 45.2L172 39C168.6 38.3 165.3 37.9 162.1 37.7zM125.1 6.5L126.1 6.5 124.1.4C121 .4 117.8.6 114.5 1L116.4 6.9C119.3 6.6 122.2 6.5 125.1 6.5zM129.9 43.3L132.2 50.2C135.1 48.8 138 47.6 140.9 46.7L138.7 40.1C135.3 41.1 132.4 42.2 129.9 43.3zM84.5 17L80 10.1C77.5 11.4 74.9 12.8 72.2 14.4L76.8 21.4C79.4 19.8 81.9 18.3 84.5 17zM105 62L109.8 69.2C111.5 66.7 113.5 64.4 115.7 62.1L111.2 55.3C108.9 57.4 106.8 59.7 105 62zM90.5 94.2L98.6 100.6C99 96.7 99.7 92.8 100.7 88.9L93.5 83.2C92.2 86.9 91.3 90.6 90.5 94.2zM46.7 46.7L39.6 40.5C37 43 34.5 45.5 32.2 48L39.9 54.6C42 51.9 44.3 49.2 46.7 46.7zM16.5 91.4L5 87.2C3.1 91.5 1 96.5 0 99.2L11.5 103.4C12.8 100 14.9 95.1 16.5 91.4zM89 119.6C89.2 124.9 89.7 129.2 90.2 132.2L102.2 136.5C101.3 132.6 100.4 128.2 99.8 123.5L89 119.6z"/>
        </g>
    </symbol>

    <symbol xmlns="http://www.w3.org/2000/svg" viewBox="0 0 128 128" id="ruby">
        <path fill-rule="evenodd" clip-rule="evenodd" fill="#D91404" d="M35.971 111.33c27.466 3.75 54.444 7.433 81.958 11.188-9.374-15.606-18.507-30.813-27.713-46.144l-54.245 34.956zM125.681 24.947c-2.421 3.636-4.847 7.269-7.265 10.907-8.304 12.493-16.607 24.986-24.903 37.485-.462.696-1.061 1.248-.41 2.321 8.016 13.237 15.969 26.513 23.942 39.777 1.258 2.095 2.53 4.182 4.157 6.192 1.612-32.193 3.223-64.387 4.834-96.58l-.355-.102zM16.252 66.22c.375.355 1.311.562 1.747.347 7.689-3.779 15.427-7.474 22.948-11.564 2.453-1.333 4.339-3.723 6.452-5.661 6.997-6.417 13.983-12.847 20.966-19.278.427-.395.933-.777 1.188-1.275 2.508-4.902 4.973-9.829 7.525-14.898-3.043-1.144-5.928-2.263-8.849-3.281-.396-.138-1.02.136-1.449.375-6.761 3.777-13.649 7.353-20.195 11.472-3.275 2.061-5.943 5.098-8.843 7.743-4.674 4.266-9.342 8.542-13.948 12.882-1.222 1.152-2.336 2.468-3.288 3.854-3.15 4.587-6.206 9.24-9.402 14.025 1.786 1.847 3.41 3.613 5.148 5.259zM44.354 59.949c-3.825 16.159-7.627 32.227-11.556 48.823 18.423-11.871 36.421-23.468 54.3-34.987-14.228-4.605-28.41-9.196-42.744-13.836zM120.985 25.103c-15.566 2.601-30.76 5.139-46.15 7.71 5.242 12.751 10.379 25.246 15.662 38.096 10.221-15.359 20.24-30.41 30.488-45.806zM44.996 56.644c14.017 4.55 27.755 9.01 41.892 13.6-5.25-12.79-10.32-25.133-15.495-37.737-8.815 8.059-17.498 15.999-26.397 24.137zM16.831 75.643c-4.971 11.883-9.773 23.362-14.662 35.048 9.396-.278 18.504-.547 27.925-.825-4.423-11.412-8.759-22.6-13.263-34.223zM30.424 101.739l.346-.076c3.353-13.941 6.754-27.786 10.177-42.272-7.636 3.969-14.92 7.754-22.403 11.644 3.819 9.926 7.891 20.397 11.88 30.704zM115.351 22.842c-4.459-1.181-8.918-2.366-13.379-3.539-6.412-1.686-12.829-3.351-19.237-5.052-.801-.213-1.38-.352-1.851.613-2.265 4.64-4.6 9.245-6.901 13.868-.071.143-.056.328-.111.687 13.886-2.104 27.679-4.195 41.47-6.285l.009-.292zM89.482 12.288l36.343 10.054c-2.084-5.939-4.017-11.446-6.005-17.11l-30.285 6.715-.053.341zM33.505 114.007c-4.501-.519-9.122-.042-13.687.037-3.75.063-7.5.206-11.25.323-.386.012-.771.09-1.156.506 31.003 2.866 62.005 5.732 93.007 8.6l.063-.414c-9.938-1.357-19.877-2.714-29.815-4.07-12.384-1.691-24.747-3.551-37.162-4.982zM2.782 99.994c3.995-9.27 7.973-18.546 11.984-27.809.401-.929.37-1.56-.415-2.308-1.678-1.597-3.237-3.318-5.071-5.226-2.479 12.24-4.897 24.177-7.317 36.113l.271.127c.185-.297.411-.578.548-.897zM81.522 9.841c6.737-1.738 13.572-3.097 20.367-4.613.44-.099.87-.244 1.303-.368l-.067-.332c-9.571 1.287-19.141 2.575-29.194 3.928 2.741 1.197 4.853 2.091 7.591 1.385z"/>
    </symbol>
</svg>
